<svg width="21" height="40" viewBox="0 0 21 40" fill="none" xmlns="http://www.w3.org/2000/svg">
<path d="M3.81846 39.9998C4.24538 40.0013 4.6672 39.9071 5.05292 39.7241C5.43865 39.5412 5.77847 39.2742 6.04743 38.9428L19.8499 21.8015C20.2702 21.2903 20.5 20.6491 20.5 19.9874C20.5 19.3257 20.2702 18.6845 19.8499 18.1733L5.56163 1.03205C5.07658 0.448631 4.37956 0.0817387 3.62392 0.0120889C2.86828 -0.0575609 2.11592 0.175737 1.53233 0.660658C0.948751 1.14558 0.58176 1.8424 0.512091 2.59784C0.442423 3.35327 0.675783 4.10543 1.16084 4.68885L13.9346 20.0017L1.58949 35.3145C1.24004 35.7339 1.01807 36.2445 0.949831 36.786C0.881592 37.3275 0.96994 37.8773 1.20443 38.3702C1.43892 38.8631 1.80972 39.2785 2.27298 39.5673C2.73624 39.8561 3.27255 40.0062 3.81846 39.9998Z" fill="#313131"/>
</svg>
