<svg width="142" height="142" viewBox="0 0 142 142" fill="none" xmlns="http://www.w3.org/2000/svg">
<circle cx="71" cy="71" r="71" fill="#EEEEEE"/>
<circle cx="71" cy="71" r="70.5" stroke="black" stroke-opacity="0.2"/>
<g clip-path="url(#clip0)">
<path d="M107 47.32C96.9632 56.2 84.9191 71.1999 70.8677 92.3199L63.9423 103.06C58.1612 95.8599 48.847 85.8599 36 73.0599L42.4436 66.6399L59.6667 81.6399C65.6887 75.6399 71.2892 70.2099 76.4682 65.3499C81.6472 60.49 85.7723 56.74 88.8435 54.1C91.9148 51.46 94.5544 49.24 96.7625 47.44C98.9706 45.64 100.516 44.46 101.399 43.9L102.664 43.06C102.825 43.06 103.046 43.1 103.327 43.18C103.608 43.26 104.129 43.65 104.892 44.35C105.655 45.05 106.358 46.04 107 47.32Z" fill="#00A34B"/>
</g>
<defs>
<clipPath id="clip0">
<rect width="71" height="60" fill="white" transform="translate(36 43)"/>
</clipPath>
</defs>
</svg>
