<svg width="18" height="18" viewBox="0 0 18 18" fill="none" xmlns="http://www.w3.org/2000/svg">
<path d="M11.9431 13.1283L13.4196 6.16741C13.4799 5.87277 13.4448 5.66183 13.3142 5.5346C13.1836 5.40737 13.0112 5.38393 12.7969 5.46429L4.1183 8.80915C3.92411 8.88281 3.79185 8.96652 3.72154 9.06027C3.65123 9.15402 3.64286 9.24275 3.69643 9.32645C3.75 9.41016 3.85714 9.47545 4.01786 9.52232L6.23772 10.2154L11.3906 6.97098C11.5312 6.87723 11.6384 6.85714 11.7121 6.91071C11.7589 6.9442 11.7455 6.99442 11.6719 7.06138L7.50335 10.8281L7.34263 13.1183C7.49665 13.1183 7.64732 13.0446 7.79464 12.8973L8.87946 11.8527L11.1295 13.51C11.558 13.7511 11.8292 13.6239 11.9431 13.1283ZM18 9C18 10.2188 17.7623 11.3839 17.2868 12.4955C16.8114 13.6071 16.1719 14.5647 15.3683 15.3683C14.5647 16.1719 13.6071 16.8114 12.4955 17.2868C11.3839 17.7623 10.2188 18 9 18C7.78125 18 6.61607 17.7623 5.50446 17.2868C4.39286 16.8114 3.43527 16.1719 2.6317 15.3683C1.82812 14.5647 1.18862 13.6071 0.71317 12.4955C0.237723 11.3839 0 10.2188 0 9C0 7.78125 0.237723 6.61607 0.71317 5.50446C1.18862 4.39286 1.82812 3.43527 2.6317 2.6317C3.43527 1.82812 4.39286 1.18862 5.50446 0.71317C6.61607 0.237723 7.78125 0 9 0C10.2188 0 11.3839 0.237723 12.4955 0.71317C13.6071 1.18862 14.5647 1.82812 15.3683 2.6317C16.1719 3.43527 16.8114 4.39286 17.2868 5.50446C17.7623 6.61607 18 7.78125 18 9Z" fill="white"/>
</svg>
