<svg width="18" height="18" viewBox="0 0 18 18" fill="none" xmlns="http://www.w3.org/2000/svg">
<path d="M8.52625 0.00261953C7.00429 0.0200592 3.73219 0.257463 1.90203 1.85122C0.540683 3.13163 0.0653653 5.02468 0.00965473 7.36553C-0.0365732 9.69794 -0.0922838 14.0781 4.35567 15.2708V17.0873C4.35567 17.0873 4.32781 17.8141 4.83395 17.9632C5.45743 18.1505 5.81244 17.5914 6.40511 16.9905L7.51043 15.8041C10.5538 16.0443 12.8847 15.4907 13.1532 15.4086C13.7707 15.2212 17.2491 14.7993 17.8175 10.4186C18.4007 5.89441 17.5336 3.04387 15.9684 1.75446H15.9589C15.4865 1.34153 13.5882 0.0284977 9.3471 0.0138709C9.3471 0.0138709 9.03239 -0.00638158 8.52625 0.00205696V0.00261953ZM8.57841 1.27459C9.01046 1.27178 9.27301 1.28922 9.27301 1.28922C12.8628 1.29822 14.5762 2.32378 14.9804 2.6692C16.2985 3.74146 16.9777 6.31127 16.4804 10.0884C16.0081 13.7507 13.187 13.9825 12.6648 14.1406C12.4426 14.2081 10.3896 14.6885 7.8032 14.5304C7.8032 14.5304 5.87704 16.7368 5.27489 17.305C5.17947 17.4046 5.06805 17.4338 4.99693 17.4192C4.89499 17.3956 4.86418 17.2757 4.8701 17.1115L4.88848 14.0967C1.11616 13.1065 1.33841 9.37053 1.37871 7.41897C1.42494 5.46742 1.81076 3.87085 2.95935 2.78959C4.50561 1.46249 7.28403 1.28359 8.57722 1.27459H8.57841ZM8.86289 3.22558C8.83184 3.22528 8.80104 3.23082 8.77226 3.24188C8.74347 3.25293 8.71728 3.26929 8.69519 3.29C8.6731 3.3107 8.65554 3.33536 8.64353 3.36254C8.63153 3.38972 8.62531 3.41888 8.62523 3.44836C8.62523 3.57437 8.73309 3.67395 8.86289 3.67395C9.45052 3.66334 10.0345 3.76326 10.5813 3.96796C11.128 4.17266 11.6267 4.47807 12.0485 4.86659C12.9096 5.66038 13.3292 6.72701 13.3452 8.12162C13.3452 8.24482 13.4501 8.34721 13.5829 8.34721V8.33821C13.6454 8.33836 13.7055 8.31503 13.7501 8.2733C13.7946 8.23157 13.8199 8.17482 13.8205 8.11543C13.8493 7.459 13.7372 6.80386 13.4909 6.18985C13.2447 5.57584 12.8694 5.01577 12.3881 4.54368C11.4499 3.67338 10.261 3.22502 8.86289 3.22502V3.22558ZM5.73895 3.74146C5.57119 3.71819 5.4001 3.75015 5.25415 3.83203H5.2417C4.90285 4.02057 4.5976 4.25886 4.3373 4.53805C4.12097 4.77546 4.00363 5.01568 3.97281 5.24689C3.95443 5.38472 3.96688 5.52255 4.01015 5.65419L4.02555 5.66319C4.26914 6.34278 4.5874 6.99648 4.97619 7.61193C5.47701 8.47658 6.09334 9.27622 6.8099 9.99104L6.83123 10.0203L6.86501 10.0439L6.88635 10.0675L6.91124 10.0878C7.66703 10.77 8.51149 11.3577 9.42414 11.8368C10.4672 12.3758 11.1002 12.6306 11.4801 12.7364V12.742C11.5915 12.7741 11.6929 12.7887 11.7948 12.7887C12.1186 12.7662 12.4251 12.6414 12.6654 12.4343C12.9582 12.1871 13.2065 11.8962 13.4003 11.573V11.5674C13.5823 11.2422 13.5206 10.9345 13.2581 10.7263C12.7323 10.29 12.1637 9.90254 11.5601 9.56911C11.1559 9.36096 10.7452 9.48698 10.5787 9.69794L10.2236 10.1227C10.0417 10.3336 9.71099 10.3044 9.71099 10.3044L9.70151 10.31C7.23543 9.712 6.57757 7.3419 6.57757 7.3419C6.57757 7.3419 6.54675 7.01955 6.77493 6.85528L7.21943 6.51549C7.43219 6.35121 7.58036 5.96192 7.35218 5.57768C7.00334 5.00395 6.59601 4.4641 6.13604 3.96592C6.03548 3.84847 5.8944 3.76857 5.73776 3.74033L5.73895 3.74146ZM9.27301 4.40979C8.95831 4.40979 8.95831 4.86097 9.27598 4.86097C9.6673 4.86699 10.0535 4.94616 10.4126 5.09395C10.7717 5.24173 11.0966 5.45524 11.3687 5.72226C11.6169 5.98217 11.8076 6.28673 11.9296 6.6179C12.0516 6.94906 12.1023 7.30009 12.0787 7.65019C12.0798 7.70944 12.1053 7.76593 12.1497 7.80757C12.1941 7.84921 12.2539 7.87268 12.3163 7.87297L12.3258 7.88478C12.3887 7.88434 12.4489 7.86043 12.4934 7.81822C12.5378 7.77601 12.563 7.71888 12.5635 7.65919C12.5848 6.76527 12.292 6.01536 11.7178 5.41454C11.1405 4.81371 10.3351 4.47673 9.30679 4.40979H9.27301ZM9.66239 5.62269C9.33821 5.61369 9.32576 6.07387 9.64698 6.08287C10.4281 6.12112 10.8074 6.4958 10.8572 7.26652C10.8583 7.32502 10.8835 7.3808 10.9273 7.42191C10.9712 7.46302 11.0303 7.4862 11.0919 7.48648H11.1014C11.1331 7.48519 11.1642 7.47792 11.1929 7.4651C11.2216 7.45227 11.2473 7.43415 11.2685 7.41179C11.2898 7.38943 11.3061 7.36327 11.3166 7.33485C11.3271 7.30643 11.3315 7.27632 11.3296 7.24626C11.2738 6.24151 10.6966 5.67557 9.67188 5.62325H9.66239V5.62269Z" fill="white"/>
</svg>
