<svg width="1920" height="64" viewBox="0 0 1920 64" fill="none" xmlns="http://www.w3.org/2000/svg">
<path fill-rule="evenodd" clip-rule="evenodd" d="M0 20.951L-2.36505e-05 4.66727C40 17.3948 160 28.0634 240 29.9351C320 31.6196 400 10.0951 480 2.98271C560 -4.31688 640 2.98271 720 11.9668C800 20.9509 880 31.6196 960 26.1917C1040 20.9509 1120 -0.760671 1200 1.11102C1280 2.98271 1360 28.0634 1440 29.9351C1520 31.6196 1600 10.0951 1680 4.66723C1760 -0.760672 1840 10.0951 1880 15.523L1920 20.9509V63.9998L1880 63.9998C1840 63.9998 1760 63.9998 1680 63.9998C1600 63.9998 1520 63.9998 1440 63.9998C1360 63.9998 1280 63.9998 1200 63.9998C1120 63.9998 1040 63.9998 960 63.9998C880 63.9998 800 63.9998 720 63.9998C640 63.9998 560 63.9998 480 63.9998C400 63.9998 320 63.9998 240 63.9998C160 63.9998 80.0003 63.9998 40.0003 63.9998L0.000262503 63.9998L0 20.951Z" fill="#313131"/>
</svg>
