<svg width="1920" height="64" viewBox="0 0 1920 64" fill="none" xmlns="http://www.w3.org/2000/svg">
<path fill-rule="evenodd" clip-rule="evenodd" d="M1920 43.049L1920 59.3327C1880 46.6052 1760 35.9366 1680 34.0649C1600 32.3804 1520 53.9048 1440 61.0172C1360 68.3168 1280 61.0172 1200 52.0331C1120 43.049 1040 32.3803 960 37.8082C880 43.049 800 64.7606 720 62.8889C640 61.0172 560 35.9365 480 34.0648C400 32.3803 320 53.9047 240 59.3326C160 64.7605 80 53.9047 40 48.4768L1.83159e-06 43.0489L5.59504e-06 -5.05133e-09L40 3.49186e-06C80 6.98877e-06 160 1.39826e-05 240 2.09764e-05C320 2.79702e-05 400 3.49641e-05 480 4.19579e-05C560 4.89517e-05 640 5.59455e-05 720 6.29393e-05C800 6.99332e-05 880 7.6927e-05 960 8.39208e-05C1040 9.09146e-05 1120 9.79085e-05 1200 0.000104902C1280 0.000111896 1360 0.00011889 1440 0.000125884C1520 0.000132878 1600 0.000139871 1680 0.000146865C1760 0.000153859 1840 0.000160853 1880 0.00016435L1920 0.000167847L1920 43.049Z" fill="#313131"/>
</svg>
